<svg id="aa170628-082e-41bd-8446-9c7c166da0b3" data-name="Layer 1" xmlns="http://www.w3.org/2000/svg" viewBox="0 0 217.55859 123.02959">
  <defs>
    <style>
      .ef717dfb-d522-490e-ac2b-06ae37c8e2d1 {
        fill: #333;
      }

      .bc9fd09c-395e-45a9-a839-6572b6e38474 {
        fill: #0c2134;
      }

      .a35bd51f-04ea-46a1-963f-34a020dcbcc6 {
        fill: #ef554e;
      }
    </style>
  </defs>
  <title>Features</title>
  <path class="ef717dfb-d522-490e-ac2b-06ae37c8e2d1" d="M16.63184,114.37724,10.458,101.35674a.1649.1649,0,0,0-.168-.126H3.15039a.1486.1486,0,0,0-.168.168v12.85254a.37159.37159,0,0,1-.4209.41992H.41992A.3709.3709,0,0,1,0,114.25127V85.69072a.37129.37129,0,0,1,.41992-.41992H11.29785a7.85762,7.85762,0,0,1,5.83789,2.24707,8.73081,8.73081,0,0,1,.62989,10.85742,7.19289,7.19289,0,0,1-4.3252,2.64551c-.1123.05664-.14063.126-.084.21l6.2998,12.93652a.47845.47845,0,0,1,.042.21q0,.29444-.33594.29395H17.13574A.49268.49268,0,0,1,16.63184,114.37724ZM2.98242,88.04326v10.626a.14821.14821,0,0,0,.168.168h7.81152a5.18722,5.18722,0,0,0,5.46-5.46,5.41166,5.41166,0,0,0-1.51172-3.96875,5.29851,5.29851,0,0,0-3.94825-1.5332H3.15039A.1486.1486,0,0,0,2.98242,88.04326Z"/>
  <path class="ef717dfb-d522-490e-ac2b-06ae37c8e2d1" d="M41.45508,103.41533v1.34375a.3716.3716,0,0,1-.4209.41992H27.46875a.1486.1486,0,0,0-.168.168,18.68,18.68,0,0,0,.252,2.98242,5.01942,5.01942,0,0,0,1.97364,2.98145,6.43359,6.43359,0,0,0,3.86426,1.09277,5.97289,5.97289,0,0,0,3.10839-.79883,5.48232,5.48232,0,0,0,2.09961-2.26757q.252-.37794.58789-.168l1.6377.96582a.41787.41787,0,0,1,.168.58789,7.55344,7.55344,0,0,1-3.14942,3.1709,9.85621,9.85621,0,0,1-4.83007,1.15527,8.84633,8.84633,0,0,1-4.99805-1.42773,7.66369,7.66369,0,0,1-2.89844-3.86426,17.252,17.252,0,0,1-.75586-5.7959q0-1.76367.06348-2.87695a9.17422,9.17422,0,0,1,.31445-1.99512,7.78216,7.78216,0,0,1,2.877-4.36817,8.41376,8.41376,0,0,1,5.2295-1.63769,8.27341,8.27341,0,0,1,5.87988,1.93164,8.95535,8.95535,0,0,1,2.56152,5.46A21.3042,21.3042,0,0,1,41.45508,103.41533ZM29.42188,96.7581a4.95992,4.95992,0,0,0-1.78516,2.877,13.58182,13.58182,0,0,0-.33594,2.85644.14821.14821,0,0,0,.168.168H38.34668a.14859.14859,0,0,0,.168-.168,19.08421,19.08421,0,0,0-.252-2.68847,5.31394,5.31394,0,0,0-1.86915-3.00293,5.54921,5.54921,0,0,0-3.54882-1.11329A5.37444,5.37444,0,0,0,29.42188,96.7581Z"/>
  <path class="ef717dfb-d522-490e-ac2b-06ae37c8e2d1" d="M60.90039,93.41924H63.042a.37128.37128,0,0,1,.41992.41992v20.11816q0,4.70361-2.709,6.8877a11.55931,11.55931,0,0,1-7.4541,2.18457q-.9668,0-1.4707-.042a.41615.41615,0,0,1-.41993-.46289l.084-1.93165a.38376.38376,0,0,1,.126-.31445.31352.31352,0,0,1,.29395-.06347l1.13379.042q3.90673,0,5.6709-1.53321,1.76367-1.53369,1.76367-4.85058v-1.55371a.09794.09794,0,0,0-.06348-.10547c-.042-.01367-.09082.00683-.14648.06348a6.52509,6.52509,0,0,1-5.502,2.51953,8.30676,8.30676,0,0,1-4.85156-1.46973,7.08221,7.08221,0,0,1-2.835-4.1582,19.4974,19.4974,0,0,1-.5039-5.124q0-1.84716.10546-3.1084a9.70927,9.70927,0,0,1,.44043-2.26757,7.83992,7.83992,0,0,1,2.73047-4.05274,7.50117,7.50117,0,0,1,4.7461-1.5332,6.755,6.755,0,0,1,5.66992,2.47754c.05566.05664.10449.07031.14648.042a.14022.14022,0,0,0,.06348-.126V93.83916A.37129.37129,0,0,1,60.90039,93.41924Zm-.46191,13.27148q.041-.92284.042-2.6875,0-2.14159-.042-2.87695a6.88111,6.88111,0,0,0-.21-1.36524,5.01428,5.01428,0,0,0-1.65918-2.91894,4.8955,4.8955,0,0,0-3.33887-1.15528,5.04517,5.04517,0,0,0-3.33887,1.13477A5.96487,5.96487,0,0,0,49.98047,99.761a15.27082,15.27082,0,0,0-.41992,4.2002,14.41458,14.41458,0,0,0,.41992,4.24219,5.24551,5.24551,0,0,0,5.25,4.07422,5.01371,5.01371,0,0,0,3.38086-1.13477,4.916,4.916,0,0,0,1.65918-2.89746A10.59235,10.59235,0,0,0,60.43848,106.69072Z"/>
  <path class="ef717dfb-d522-490e-ac2b-06ae37c8e2d1" d="M83.34863,114.12529a6.76151,6.76151,0,0,1-2.81445-2.01562,4.4515,4.4515,0,0,1-.98633-2.81446v-.5039a.37129.37129,0,0,1,.41992-.41992H81.9834a.37168.37168,0,0,1,.41992.41992v.33593a2.94457,2.94457,0,0,0,1.44922,2.415,6.11468,6.11468,0,0,0,3.63281,1.0293,5.82019,5.82019,0,0,0,3.52832-.9873,2.98752,2.98752,0,0,0,1.34375-2.499,2.29484,2.29484,0,0,0-.69238-1.72168,4.99315,4.99315,0,0,0-1.63867-1.05078q-.94483-.37793-2.91895-.96582a29.95758,29.95758,0,0,1-3.86426-1.34375,7.103,7.103,0,0,1-2.541-1.86914,4.50583,4.50583,0,0,1-1.02832-3.04492A5.105,5.105,0,0,1,81.77344,94.805a8.92873,8.92873,0,0,1,5.54394-1.5957,10.42264,10.42264,0,0,1,4.09473.75586,6.38482,6.38482,0,0,1,2.751,2.0791,4.89785,4.89785,0,0,1,.96679,2.96093v.126a.37129.37129,0,0,1-.41992.41992H92.73535a.3709.3709,0,0,1-.41992-.41992v-.126a2.8549,2.8549,0,0,0-1.36523-2.39355,6.244,6.244,0,0,0-3.67481-.9668,6.15484,6.15484,0,0,0-3.44336.86133,2.69871,2.69871,0,0,0-1.30273,2.373A2.40372,2.40372,0,0,0,83.79,101.06279a17.12376,17.12376,0,0,0,3.90527,1.5127,39.56535,39.56535,0,0,1,3.94824,1.34375,7.25759,7.25759,0,0,1,2.60352,1.82715,4.45957,4.45957,0,0,1,1.09277,3.1289,5.2213,5.2213,0,0,1-2.14257,4.36817,9.09112,9.09112,0,0,1-5.66993,1.63769A10.85047,10.85047,0,0,1,83.34863,114.12529Z"/>
  <path class="ef717dfb-d522-490e-ac2b-06ae37c8e2d1" d="M109.8291,95.89678H105.083a.14859.14859,0,0,0-.168.168v12.39063a3.69784,3.69784,0,0,0,.90332,2.835,4.13034,4.13034,0,0,0,2.835.81934h1.04981a.37129.37129,0,0,1,.41992.41992v1.72168a.37129.37129,0,0,1-.41992.41992q-.50391.041-1.55372.042a7.71945,7.71945,0,0,1-4.57812-1.13379q-1.55419-1.13379-1.55371-4.20019V96.06474a.149.149,0,0,0-.168-.168h-2.5625a.37091.37091,0,0,1-.41992-.41993V93.83916a.37129.37129,0,0,1,.41992-.41992h2.5625a.1486.1486,0,0,0,.168-.168V88.3792a.37129.37129,0,0,1,.41992-.41992h2.05762a.37168.37168,0,0,1,.41992.41992v4.87207a.14821.14821,0,0,0,.168.168h4.74609a.37168.37168,0,0,1,.41992.41992v1.63769A.37129.37129,0,0,1,109.8291,95.89678Z"/>
  <path class="ef717dfb-d522-490e-ac2b-06ae37c8e2d1" d="M126.96484,93.75517a.44413.44413,0,0,1,.25293.5459l-.46289,2.0586a.35765.35765,0,0,1-.5459.252,4.271,4.271,0,0,0-1.63769-.29395l-.5459.042a5.00387,5.00387,0,0,0-3.6123,1.61621,5.477,5.477,0,0,0-1.42774,3.88574v12.38965a.37129.37129,0,0,1-.41992.41992h-2.14258a.37129.37129,0,0,1-.41992-.41992V93.83916a.37168.37168,0,0,1,.41992-.41992h2.14258a.37168.37168,0,0,1,.41992.41992v2.5625c0,.084.02051.13281.0625.14648.042.01465.07715-.00683.10547-.0625a6.68659,6.68659,0,0,1,2.24707-2.415,5.81268,5.81268,0,0,1,3.1709-.86132A4.96242,4.96242,0,0,1,126.96484,93.75517Z"/>
  <path class="ef717dfb-d522-490e-ac2b-06ae37c8e2d1" d="M144.39551,95.01494a6.699,6.699,0,0,1,2.05859,5.124v14.11231a.37129.37129,0,0,1-.41992.41992H143.8916a.3709.3709,0,0,1-.41992-.41992v-1.72168a.13951.13951,0,0,0-.0625-.126c-.042-.02832-.0918-.01465-.14746.042a6.55954,6.55954,0,0,1-2.72949,1.91016,10.26275,10.26275,0,0,1-3.73828.65137,8.0941,8.0941,0,0,1-4.99805-1.51172,5.40191,5.40191,0,0,1-2.01563-4.62012,6.0242,6.0242,0,0,1,2.28907-4.97754,9.94726,9.94726,0,0,1,6.3623-1.82617h4.87207a.149.149,0,0,0,.168-.168v-1.59668a4.658,4.658,0,0,0-1.19727-3.38086,4.963,4.963,0,0,0-3.71679-1.23926,6.16941,6.16941,0,0,0-3.27539.77735,3.25776,3.25776,0,0,0-1.55469,2.16308.44461.44461,0,0,1-.50391.37793l-2.26758-.29394q-.46289-.08351-.37792-.33594a5.41419,5.41419,0,0,1,2.51953-3.82226,9.57109,9.57109,0,0,1,5.46-1.46973A8.20861,8.20861,0,0,1,144.39551,95.01494ZM141.666,111.20635a3.85636,3.85636,0,0,0,1.80566-3.33887v-3.27637a.149.149,0,0,0-.168-.168h-4.41016a7.827,7.827,0,0,0-4.45117,1.13379,3.59465,3.59465,0,0,0-1.68066,3.15039,3.24883,3.24883,0,0,0,1.28125,2.793,5.48564,5.48564,0,0,0,3.33887.94531A7.38721,7.38721,0,0,0,141.666,111.20635Z"/>
  <path class="ef717dfb-d522-490e-ac2b-06ae37c8e2d1" d="M161.61523,95.89678h-4.74609a.14859.14859,0,0,0-.168.168v12.39063a3.69784,3.69784,0,0,0,.90332,2.835,4.13035,4.13035,0,0,0,2.835.81934h1.04981a.37129.37129,0,0,1,.41992.41992v1.72168a.37129.37129,0,0,1-.41992.41992q-.50391.041-1.55371.042a7.71949,7.71949,0,0,1-4.57813-1.13379q-1.55419-1.13379-1.55371-4.20019V96.06474a.149.149,0,0,0-.168-.168h-2.5625a.37091.37091,0,0,1-.41992-.41993V93.83916a.37129.37129,0,0,1,.41992-.41992h2.5625a.1486.1486,0,0,0,.168-.168V88.3792a.37129.37129,0,0,1,.41992-.41992h2.05762a.37168.37168,0,0,1,.41992.41992v4.87207a.14821.14821,0,0,0,.168.168h4.74609a.37168.37168,0,0,1,.41993.41992v1.63769A.3713.3713,0,0,1,161.61523,95.89678Z"/>
  <path class="ef717dfb-d522-490e-ac2b-06ae37c8e2d1" d="M181.39648,113.45342a7.95671,7.95671,0,0,1-3.02343-4.28418,18.29393,18.29393,0,0,1-.58789-5.166,17.83743,17.83743,0,0,1,.58789-5.124,7.74521,7.74521,0,0,1,2.98144-4.24219,8.89508,8.89508,0,0,1,5.292-1.55371A8.59061,8.59061,0,0,1,191.792,94.637a7.79094,7.79094,0,0,1,2.96094,4.2002,17.53922,17.53922,0,0,1,.58789,5.166,17.28581,17.28581,0,0,1-.58789,5.166,7.79439,7.79439,0,0,1-2.96094,4.28418,8.65316,8.65316,0,0,1-5.1875,1.55371A8.74762,8.74762,0,0,1,181.39648,113.45342Zm8.65235-2.16309a5.4763,5.4763,0,0,0,1.93164-3.00293,18.35524,18.35524,0,0,0,.37891-4.24219,20.23125,20.23125,0,0,0-.33692-4.24218,5.428,5.428,0,0,0-1.95215-3.00293,5.59528,5.59528,0,0,0-3.50781-1.11329,5.34621,5.34621,0,0,0-5.418,4.11622,20.3112,20.3112,0,0,0-.33594,4.24218,20.31131,20.31131,0,0,0,.33594,4.24219,5.22856,5.22856,0,0,0,1.91113,3.00293,5.6504,5.6504,0,0,0,3.54883,1.11328A5.43211,5.43211,0,0,0,190.04883,111.29033Z"/>
  <path class="ef717dfb-d522-490e-ac2b-06ae37c8e2d1" d="M215.56445,95.09892a7.11479,7.11479,0,0,1,1.99414,5.292v13.86035a.3709.3709,0,0,1-.41992.41992h-2.1416a.3709.3709,0,0,1-.41992-.41992V100.97881a5.24506,5.24506,0,0,0-1.40723-3.7793,4.80484,4.80484,0,0,0-3.63281-1.4707,4.902,4.902,0,0,0-5.166,5.166v13.35645a.37129.37129,0,0,1-.41992.41992h-2.14258a.37129.37129,0,0,1-.41992-.41992V93.83916a.37168.37168,0,0,1,.41992-.41992h2.14258a.37168.37168,0,0,1,.41992.41992v1.80566a.1395.1395,0,0,0,.0625.126c.042.02832.07715.01465.10547-.042a6.48363,6.48363,0,0,1,5.66992-2.60352A7.28436,7.28436,0,0,1,215.56445,95.09892Z"/>
  <circle class="bc9fd09c-395e-45a9-a839-6572b6e38474" cx="112.82941" cy="8.0289" r="3.19136"/>
  <circle class="bc9fd09c-395e-45a9-a839-6572b6e38474" cx="157.33613" cy="16.44885" r="3.19136"/>
  <path class="a35bd51f-04ea-46a1-963f-34a020dcbcc6" d="M149.31449,16.30547a7.9993,7.9993,0,0,1,.60784-2.93848l-29.10156-6.081c.02252.24462.03754.49218.03754.74267a8.0188,8.0188,0,0,1-.32861,2.26172Z"/>
  <circle class="bc9fd09c-395e-45a9-a839-6572b6e38474" cx="110.35741" cy="43.8854" r="3.19136"/>
  <path class="a35bd51f-04ea-46a1-963f-34a020dcbcc6" d="M110.35739,35.85674a8.02666,8.02666,0,0,1,2.39637.36377l.693-20.19385c-.20441.01562-.40894.03125-.61737.03125a8.02006,8.02006,0,0,1-2.37305-.35742l-.69275,20.186C109.96042,35.87187,110.157,35.85674,110.35739,35.85674Z"/>
  <circle class="bc9fd09c-395e-45a9-a839-6572b6e38474" cx="71.90171" cy="87.11558" r="3.19136"/>
  <path class="ef717dfb-d522-490e-ac2b-06ae37c8e2d1" d="M71.90171,95.14433a8.062,8.062,0,0,1-1.636-.16748v19.23243a.37159.37159,0,0,0,.4209.41992h2.1416a.37129.37129,0,0,0,.41992-.41992V95.02275A8.04772,8.04772,0,0,1,71.90171,95.14433Z"/>
  <path class="a35bd51f-04ea-46a1-963f-34a020dcbcc6" d="M78.31619,82.30107l28.45765-31.23828a8.04223,8.04223,0,0,1-2.39209-1.82861L76.09928,80.28056A8.063,8.063,0,0,1,78.31619,82.30107Z"/>
  <circle class="bc9fd09c-395e-45a9-a839-6572b6e38474" cx="169.76311" cy="87.36534" r="3.19136"/>
  <path class="a35bd51f-04ea-46a1-963f-34a020dcbcc6" d="M169.76309,79.33623c.05872,0,.11554.00781.17395.00879l-9.332-55.56738a7.97563,7.97563,0,0,1-2.92761.68261l9.30084,55.38233A7.995,7.995,0,0,1,169.76309,79.33623Z"/>
  <path class="ef717dfb-d522-490e-ac2b-06ae37c8e2d1" d="M169.76309,95.39433A8.06628,8.06628,0,0,1,168.209,95.241v18.96827a.37159.37159,0,0,0,.4209.41992h2.1416a.37129.37129,0,0,0,.41992-.41992V95.26006A8.05146,8.05146,0,0,1,169.76309,95.39433Z"/>
</svg>
