<svg id="e40d5b97-1640-401b-b6c5-7690de1ecc62" data-name="Layer 1" xmlns="http://www.w3.org/2000/svg" viewBox="0 0 141.87086 133.12998">
  <defs>
    <style>
      .ea752d78-c516-4dfd-87dc-553bd59ce11d {
        fill: none;
        stroke: #ef554e;
        stroke-miterlimit: 10;
        stroke-width: 3px;
      }

      .ad05c5ec-45b0-44ca-805c-f51d296e0527 {
        fill: #fff;
      }

      .bd9cbec9-f5e7-458a-a8fc-7773ab295092 {
        fill: #0c2134;
      }
    </style>
  </defs>
  <title>features2</title>
  <g>
    <line class="ea752d78-c516-4dfd-87dc-553bd59ce11d" x1="79.49823" y1="56.63706" x2="129.00442" y2="11.22026"/>
    <line class="ea752d78-c516-4dfd-87dc-553bd59ce11d" x1="7.69736" y1="122.5069" x2="63.9803" y2="70.87315"/>
    <line class="ea752d78-c516-4dfd-87dc-553bd59ce11d" x1="78.79018" y1="9.9642" x2="129.00442" y2="11.22026"/>
    <line class="ea752d78-c516-4dfd-87dc-553bd59ce11d" x1="133.71445" y1="58.95042" x2="129.00442" y2="11.22026"/>
    <line class="ea752d78-c516-4dfd-87dc-553bd59ce11d" x1="11.21431" y1="77.42888" x2="7.69736" y2="122.5069"/>
    <line class="ea752d78-c516-4dfd-87dc-553bd59ce11d" x1="52.9154" y1="113.21208" x2="7.69736" y2="122.5069"/>
    <g>
      <circle class="ad05c5ec-45b0-44ca-805c-f51d296e0527" cx="129.00442" cy="11.22026" r="8.0289"/>
      <circle class="bd9cbec9-f5e7-458a-a8fc-7773ab295092" cx="129.00442" cy="11.22026" r="3.19136"/>
    </g>
    <g>
      <circle class="ad05c5ec-45b0-44ca-805c-f51d296e0527" cx="63.9803" cy="70.87314" r="8.0289"/>
      <circle class="bd9cbec9-f5e7-458a-a8fc-7773ab295092" cx="63.9803" cy="70.87314" r="3.19136"/>
    </g>
    <g>
      <circle class="ad05c5ec-45b0-44ca-805c-f51d296e0527" cx="79.49822" cy="56.63706" r="8.0289"/>
      <circle class="bd9cbec9-f5e7-458a-a8fc-7773ab295092" cx="79.49822" cy="56.63706" r="3.19136"/>
    </g>
    <g>
      <circle class="ad05c5ec-45b0-44ca-805c-f51d296e0527" cx="78.48542" cy="9.95658" r="8.0289"/>
      <circle class="bd9cbec9-f5e7-458a-a8fc-7773ab295092" cx="78.48542" cy="9.95658" r="3.19136"/>
    </g>
    <g>
      <circle class="ad05c5ec-45b0-44ca-805c-f51d296e0527" cx="133.84196" cy="58.71427" r="8.0289"/>
      <circle class="bd9cbec9-f5e7-458a-a8fc-7773ab295092" cx="133.84196" cy="58.71427" r="3.19136"/>
    </g>
    <g>
      <circle class="ad05c5ec-45b0-44ca-805c-f51d296e0527" cx="11.22026" cy="77.35265" r="8.0289"/>
      <circle class="bd9cbec9-f5e7-458a-a8fc-7773ab295092" cx="11.22026" cy="77.35265" r="3.19136"/>
    </g>
    <g>
      <circle class="ad05c5ec-45b0-44ca-805c-f51d296e0527" cx="8.0289" cy="122.43875" r="8.0289"/>
      <circle class="bd9cbec9-f5e7-458a-a8fc-7773ab295092" cx="8.0289" cy="122.43875" r="3.19136"/>
    </g>
    <g>
      <circle class="ad05c5ec-45b0-44ca-805c-f51d296e0527" cx="53.09039" cy="113.17611" r="8.0289"/>
      <circle class="bd9cbec9-f5e7-458a-a8fc-7773ab295092" cx="53.09039" cy="113.17611" r="3.19136"/>
    </g>
    <line class="ea752d78-c516-4dfd-87dc-553bd59ce11d" x1="13.00378" y1="8.0289" x2="58.7059" y2="50.68538"/>
    <line class="ea752d78-c516-4dfd-87dc-553bd59ce11d" x1="16.3228" y1="39.73223" x2="13.00378" y2="8.0289"/>
    <line class="ea752d78-c516-4dfd-87dc-553bd59ce11d" x1="43.25897" y1="13.14795" x2="13.00378" y2="8.0289"/>
    <line class="ea752d78-c516-4dfd-87dc-553bd59ce11d" x1="82.68959" y1="76.36639" x2="129.30457" y2="125.10108"/>
    <line class="ea752d78-c516-4dfd-87dc-553bd59ce11d" x1="93.29416" y1="116.36748" x2="129.30457" y2="125.10108"/>
    <line class="ea752d78-c516-4dfd-87dc-553bd59ce11d" x1="126.1132" y1="91.05138" x2="129.30457" y2="125.10108"/>
    <g>
      <circle class="ad05c5ec-45b0-44ca-805c-f51d296e0527" cx="58.12556" cy="50.68538" r="8.0289"/>
      <circle class="bd9cbec9-f5e7-458a-a8fc-7773ab295092" cx="58.12556" cy="50.68538" r="3.19136"/>
    </g>
    <g>
      <circle class="ad05c5ec-45b0-44ca-805c-f51d296e0527" cx="13.13144" cy="8.0289" r="8.0289"/>
      <circle class="bd9cbec9-f5e7-458a-a8fc-7773ab295092" cx="13.13144" cy="8.0289" r="3.19136"/>
    </g>
    <g>
      <circle class="ad05c5ec-45b0-44ca-805c-f51d296e0527" cx="43.25897" cy="13.14795" r="8.0289"/>
      <circle class="bd9cbec9-f5e7-458a-a8fc-7773ab295092" cx="43.25897" cy="13.14795" r="3.19136"/>
    </g>
    <g>
      <circle class="ad05c5ec-45b0-44ca-805c-f51d296e0527" cx="16.3228" cy="39.73223" r="8.0289"/>
      <circle class="bd9cbec9-f5e7-458a-a8fc-7773ab295092" cx="16.3228" cy="39.73223" r="3.19136"/>
    </g>
    <g>
      <circle class="ad05c5ec-45b0-44ca-805c-f51d296e0527" cx="82.68959" cy="76.36639" r="8.0289"/>
      <circle class="bd9cbec9-f5e7-458a-a8fc-7773ab295092" cx="82.68959" cy="76.36639" r="3.19136"/>
    </g>
    <g>
      <circle class="ad05c5ec-45b0-44ca-805c-f51d296e0527" cx="126.1132" cy="91.05138" r="8.0289"/>
      <circle class="bd9cbec9-f5e7-458a-a8fc-7773ab295092" cx="126.1132" cy="91.05138" r="3.19136"/>
    </g>
    <g>
      <circle class="ad05c5ec-45b0-44ca-805c-f51d296e0527" cx="93.29416" cy="116.36748" r="8.0289"/>
      <circle class="bd9cbec9-f5e7-458a-a8fc-7773ab295092" cx="93.29416" cy="116.36748" r="3.19136"/>
    </g>
    <g>
      <circle class="ad05c5ec-45b0-44ca-805c-f51d296e0527" cx="129.30457" cy="125.10108" r="8.0289"/>
      <circle class="bd9cbec9-f5e7-458a-a8fc-7773ab295092" cx="129.30457" cy="125.10108" r="3.19136"/>
    </g>
  </g>
</svg>
