<svg id="f57cc651-1174-4941-a882-2aa07d7638ef" data-name="Layer 1" xmlns="http://www.w3.org/2000/svg" viewBox="0 0 266.72287 115.84357">
  <defs>
    <style>
      .f4e70f62-e1da-42fb-bc2d-6488da96658d {
        fill: #333;
      }

      .aaf99bbd-aa56-4da9-85ee-fc3120566688 {
        fill: #0c2134;
      }

      .ed5a8919-b68a-46ea-95a9-e5f46e2b4fa4 {
        fill: #ef554e;
      }
    </style>
  </defs>
  <title>Features</title>
  <path class="f4e70f62-e1da-42fb-bc2d-6488da96658d" d="M19.38888,115.12971l-1.68017-5.292a.16454.16454,0,0,0-.168-.126H4.98263a.16454.16454,0,0,0-.168.126l-1.67968,5.292a.48894.48894,0,0,1-.50391.33593H.363c-.30859,0-.41992-.15332-.33593-.46191L9.3088,86.40119a.49006.49006,0,0,1,.50391-.33594h2.856a.49064.49064,0,0,1,.50439.33594l9.32373,28.60254.042.168q0,.29444-.37793.29394H19.89279A.48894.48894,0,0,1,19.38888,115.12971ZM5.676,107.21272a.19989.19989,0,0,0,.147.0625H16.6589a.20145.20145,0,0,0,.147-.0625.11781.11781,0,0,0,.021-.14747l-5.46-17.13574a.13564.13564,0,0,0-.126-.084.13375.13375,0,0,0-.126.084l-5.46,17.13574A.11658.11658,0,0,0,5.676,107.21272Z"/>
  <path class="f4e70f62-e1da-42fb-bc2d-6488da96658d" d="M40.64035,94.21369h2.14209a.37149.37149,0,0,1,.41992.41992v20.41211a.37109.37109,0,0,1-.41992.41992H40.64035a.3709.3709,0,0,1-.41993-.41992v-1.80566a.13377.13377,0,0,0-.084-.126.08243.08243,0,0,0-.126.042,6.26376,6.26376,0,0,1-5.58593,2.60352,8.44061,8.44061,0,0,1-3.7168-.81934,6.39364,6.39364,0,0,1-2.688-2.373,6.81725,6.81725,0,0,1-.9873-3.73731V94.63361a.37129.37129,0,0,1,.41992-.41992h2.14209a.37149.37149,0,0,1,.41992.41992v13.31446a5.27142,5.27142,0,0,0,1.34424,3.80078,4.81139,4.81139,0,0,0,3.65381,1.40722,5.09474,5.09474,0,0,0,3.80127-1.42871,5.15043,5.15043,0,0,0,1.40673-3.77929V94.63361A.3713.3713,0,0,1,40.64035,94.21369Z"/>
  <path class="f4e70f62-e1da-42fb-bc2d-6488da96658d" d="M58.99435,96.69123H54.24826a.14859.14859,0,0,0-.168.168v12.39062a3.69785,3.69785,0,0,0,.90283,2.835,4.13126,4.13126,0,0,0,2.835.81933h1.05029a.3713.3713,0,0,1,.41993.41992v1.72168a.37129.37129,0,0,1-.41993.41992q-.50389.041-1.5542.042a7.72149,7.72149,0,0,1-4.57812-1.13379q-1.55419-1.13379-1.55371-4.2002V96.8592a.149.149,0,0,0-.168-.168h-2.562a.3709.3709,0,0,1-.41992-.41992v-1.6377a.37129.37129,0,0,1,.41992-.41992h2.562a.14859.14859,0,0,0,.168-.168V89.17365a.37129.37129,0,0,1,.41992-.41992h2.05811a.37168.37168,0,0,1,.41992.41992v4.87207a.1482.1482,0,0,0,.168.168h4.74609a.37168.37168,0,0,1,.41992.41992v1.6377A.37129.37129,0,0,1,58.99435,96.69123Z"/>
  <path class="f4e70f62-e1da-42fb-bc2d-6488da96658d" d="M79.34347,95.89338a7.11317,7.11317,0,0,1,1.99463,5.292v13.86035a.37109.37109,0,0,1-.41992.41992H78.77609a.37109.37109,0,0,1-.41992-.41992V101.77326A5.2447,5.2447,0,0,0,76.94943,97.994a4.80523,4.80523,0,0,0-3.6333-1.47071,4.90266,4.90266,0,0,0-5.166,5.166v13.35644a.37109.37109,0,0,1-.41992.41992H65.5881a.37109.37109,0,0,1-.41992-.41992V86.48518a.37149.37149,0,0,1,.41992-.41993h2.14209a.37149.37149,0,0,1,.41992.41993v9.9541a.13984.13984,0,0,0,.063.126c.042.02832.07715.01465.105-.042a6.48452,6.48452,0,0,1,5.67041-2.60351A7.28318,7.28318,0,0,1,79.34347,95.89338Z"/>
  <path class="f4e70f62-e1da-42fb-bc2d-6488da96658d" d="M103.97628,104.20979v1.34375a.37144.37144,0,0,1-.42041.41992H89.99a.14859.14859,0,0,0-.168.168,18.67877,18.67877,0,0,0,.25195,2.98242,5.02234,5.02234,0,0,0,1.97412,2.98144,6.432,6.432,0,0,0,3.86377,1.09278,5.97169,5.97169,0,0,0,3.1084-.79883,5.48235,5.48235,0,0,0,2.09961-2.26758c.16846-.25195.36377-.30762.58838-.168l1.63769.96582a.41863.41863,0,0,1,.168.58789,7.5517,7.5517,0,0,1-3.1499,3.1709,9.85478,9.85478,0,0,1-4.83008,1.15527,8.84743,8.84743,0,0,1-4.99805-1.42773,7.66,7.66,0,0,1-2.89794-3.86426,17.252,17.252,0,0,1-.75586-5.7959q0-1.76367.063-2.87695A9.17367,9.17367,0,0,1,87.26,99.88361a7.77969,7.77969,0,0,1,2.877-4.36816,8.41125,8.41125,0,0,1,5.229-1.6377,8.27554,8.27554,0,0,1,5.88037,1.93164,8.95535,8.95535,0,0,1,2.56153,5.46A21.39311,21.39311,0,0,1,103.97628,104.20979Zm-12.0332-6.65723a4.96236,4.96236,0,0,0-1.78516,2.87695A13.582,13.582,0,0,0,89.822,103.286a.14821.14821,0,0,0,.168.168h10.87793a.1484.1484,0,0,0,.168-.168,18.93272,18.93272,0,0,0-.25195-2.68848,5.31069,5.31069,0,0,0-1.86865-3.00293,5.54971,5.54971,0,0,0-3.54932-1.11328A5.37535,5.37535,0,0,0,91.94308,97.55256Z"/>
  <path class="f4e70f62-e1da-42fb-bc2d-6488da96658d" d="M124.073,95.89338a7.11317,7.11317,0,0,1,1.99463,5.292v13.86035a.37109.37109,0,0,1-.41992.41992h-2.14209a.37109.37109,0,0,1-.41992-.41992V101.77326a5.2447,5.2447,0,0,0-1.40674-3.77929,4.80521,4.80521,0,0,0-3.6333-1.47071,4.90266,4.90266,0,0,0-5.166,5.166v13.35644a.37109.37109,0,0,1-.41992.41992h-2.14209a.37109.37109,0,0,1-.41992-.41992V94.63361a.37149.37149,0,0,1,.41992-.41992h2.14209a.37148.37148,0,0,1,.41992.41992v1.80567a.13984.13984,0,0,0,.063.126c.042.02832.07715.01465.105-.042a6.48453,6.48453,0,0,1,5.67041-2.60351A7.28318,7.28318,0,0,1,124.073,95.89338Z"/>
  <path class="f4e70f62-e1da-42fb-bc2d-6488da96658d" d="M141.64914,96.69123H136.903a.1486.1486,0,0,0-.168.168v12.39062a3.69785,3.69785,0,0,0,.90284,2.835,4.13124,4.13124,0,0,0,2.835.81933h1.05029a.37129.37129,0,0,1,.41992.41992v1.72168a.37128.37128,0,0,1-.41992.41992q-.50391.041-1.5542.042a7.72149,7.72149,0,0,1-4.57812-1.13379q-1.55421-1.13379-1.55372-4.2002V96.8592a.149.149,0,0,0-.168-.168h-2.562a.3709.3709,0,0,1-.41992-.41992v-1.6377a.37129.37129,0,0,1,.41992-.41992h2.562a.14859.14859,0,0,0,.168-.168V89.17365a.3713.3713,0,0,1,.41993-.41992h2.0581a.37168.37168,0,0,1,.41992.41992v4.87207a.14821.14821,0,0,0,.168.168h4.7461a.37168.37168,0,0,1,.41992.41992v1.6377A.37129.37129,0,0,1,141.64914,96.69123Z"/>
  <path class="f4e70f62-e1da-42fb-bc2d-6488da96658d" d="M161.3674,114.22639a7.88428,7.88428,0,0,1-2.96094-4.2627,19.27151,19.27151,0,0,1-.5459-5.208,20.64718,20.64718,0,0,1,.5459-5.124A7.637,7.637,0,0,1,161.3464,95.453a8.66016,8.66016,0,0,1,5.208-1.5752,9.11327,9.11327,0,0,1,5.313,1.55372,6.93907,6.93907,0,0,1,3.17138,5.124v.084q0,.29443-.37841.37793l-2.09961.294h-.084q-.29443,0-.37842-.37793l-.126-.62988a4.72481,4.72481,0,0,0-1.84766-2.709,5.74965,5.74965,0,0,0-3.57031-1.11328,5.48039,5.48039,0,0,0-3.50684,1.11328,5.08838,5.08838,0,0,0-1.82715,2.96094,19.10537,19.10537,0,0,0-.37792,4.24219,18.665,18.665,0,0,0,.37792,4.28418,5.10577,5.10577,0,0,0,1.82715,3.00293,5.47479,5.47479,0,0,0,3.50684,1.11328,5.92481,5.92481,0,0,0,3.54932-1.07129,4.53588,4.53588,0,0,0,1.86865-2.751v-.168l.042-.168q.04174-.41894.50439-.33593l2.05762.33593c.27979.05664.40576.21.37842.46192l-.16846.83984a6.65161,6.65161,0,0,1-2.898,3.94824,9.39084,9.39084,0,0,1-5.334,1.51172A8.574,8.574,0,0,1,161.3674,114.22639Z"/>
  <path class="f4e70f62-e1da-42fb-bc2d-6488da96658d" d="M193.55978,95.80939a6.70043,6.70043,0,0,1,2.05811,5.124v14.1123a.37129.37129,0,0,1-.41993.41992h-2.14209a.3709.3709,0,0,1-.41992-.41992V113.324a.13982.13982,0,0,0-.063-.126c-.042-.02832-.0913-.01465-.147.042a6.55818,6.55818,0,0,1-2.73,1.91016,10.26089,10.26089,0,0,1-3.73828.65136,8.09258,8.09258,0,0,1-4.99756-1.51172,5.40092,5.40092,0,0,1-2.01611-4.62011,6.02554,6.02554,0,0,1,2.28906-4.97754,9.94775,9.94775,0,0,1,6.36279-1.82617H192.468a.149.149,0,0,0,.168-.168v-1.59668a4.66,4.66,0,0,0-1.19726-3.38086,4.96368,4.96368,0,0,0-3.7168-1.23926,6.17135,6.17135,0,0,0-3.27588.77734,3.25555,3.25555,0,0,0-1.5542,2.16309.44461.44461,0,0,1-.5039.37793l-2.26807-.29395q-.46216-.08349-.37793-.33593a5.41489,5.41489,0,0,1,2.52-3.82227,9.569,9.569,0,0,1,5.46-1.46973A8.20946,8.20946,0,0,1,193.55978,95.80939Zm-2.73,16.19141a3.85572,3.85572,0,0,0,1.80615-3.33887v-3.27636a.149.149,0,0,0-.168-.168h-4.41015a7.82863,7.82863,0,0,0-4.45166,1.13379,3.59527,3.59527,0,0,0-1.68018,3.15039,3.24851,3.24851,0,0,0,1.28076,2.793,5.48721,5.48721,0,0,0,3.33936.94531A7.3856,7.3856,0,0,0,190.8298,112.0008Z"/>
  <path class="f4e70f62-e1da-42fb-bc2d-6488da96658d" d="M210.77951,96.69123h-4.7461a.1486.1486,0,0,0-.168.168v12.39062a3.69785,3.69785,0,0,0,.90284,2.835,4.13124,4.13124,0,0,0,2.835.81933h1.05029a.37129.37129,0,0,1,.41992.41992v1.72168a.37128.37128,0,0,1-.41992.41992q-.50391.041-1.5542.042a7.72149,7.72149,0,0,1-4.57812-1.13379q-1.55421-1.13379-1.55371-4.2002V96.8592a.149.149,0,0,0-.168-.168h-2.562a.3709.3709,0,0,1-.41992-.41992v-1.6377a.37129.37129,0,0,1,.41992-.41992h2.562a.1486.1486,0,0,0,.168-.168V89.17365a.37129.37129,0,0,1,.41992-.41992h2.0581a.37168.37168,0,0,1,.41992.41992v4.87207a.14821.14821,0,0,0,.168.168h4.7461a.37168.37168,0,0,1,.41992.41992v1.6377A.37129.37129,0,0,1,210.77951,96.69123Z"/>
  <path class="f4e70f62-e1da-42fb-bc2d-6488da96658d" d="M230.56076,114.24787a7.95994,7.95994,0,0,1-3.02393-4.28418,18.31184,18.31184,0,0,1-.58789-5.166,17.855,17.855,0,0,1,.58789-5.124,7.74842,7.74842,0,0,1,2.98193-4.24218,8.89405,8.89405,0,0,1,5.292-1.55372,8.59019,8.59019,0,0,1,5.145,1.55372,7.78841,7.78841,0,0,1,2.96093,4.20019,17.51989,17.51989,0,0,1,.58838,5.166,17.26678,17.26678,0,0,1-.58838,5.166,7.79187,7.79187,0,0,1-2.96093,4.28418,8.65272,8.65272,0,0,1-5.187,1.55371A8.74652,8.74652,0,0,1,230.56076,114.24787Zm8.65234-2.16308a5.47633,5.47633,0,0,0,1.93164-3.00293,18.38747,18.38747,0,0,0,.37842-4.24219,20.27125,20.27125,0,0,0-.33643-4.24219,5.42872,5.42872,0,0,0-1.95263-3.00293,5.5939,5.5939,0,0,0-3.50733-1.11328,5.34517,5.34517,0,0,0-5.418,4.11621,20.27768,20.27768,0,0,0-.33593,4.24219,20.27775,20.27775,0,0,0,.33593,4.24219,5.22618,5.22618,0,0,0,1.91114,3.00293,5.65043,5.65043,0,0,0,3.54882,1.11328A5.43313,5.43313,0,0,0,239.2131,112.08479Z"/>
  <path class="f4e70f62-e1da-42fb-bc2d-6488da96658d" d="M264.72824,95.89338a7.11317,7.11317,0,0,1,1.99463,5.292v13.86035a.3711.3711,0,0,1-.41993.41992h-2.14209a.37109.37109,0,0,1-.41992-.41992V101.77326a5.2447,5.2447,0,0,0-1.40674-3.77929,4.8052,4.8052,0,0,0-3.6333-1.47071,4.90265,4.90265,0,0,0-5.166,5.166v13.35644a.37109.37109,0,0,1-.41992.41992h-2.14209a.3711.3711,0,0,1-.41993-.41992V94.63361a.37149.37149,0,0,1,.41993-.41992H253.115a.37149.37149,0,0,1,.41992.41992v1.80567a.13982.13982,0,0,0,.063.126c.042.02832.07714.01465.105-.042a6.48452,6.48452,0,0,1,5.67041-2.60351A7.28321,7.28321,0,0,1,264.72824,95.89338Z"/>
  <circle class="aaf99bbd-aa56-4da9-85ee-fc3120566688" cx="105.07936" cy="57.69478" r="3.19136"/>
  <circle class="aaf99bbd-aa56-4da9-85ee-fc3120566688" cx="219.07936" cy="8.0289" r="3.19136"/>
  <circle class="aaf99bbd-aa56-4da9-85ee-fc3120566688" cx="219.04157" cy="87.9824" r="3.19136"/>
  <path class="f4e70f62-e1da-42fb-bc2d-6488da96658d" d="M219.04159,96.01154a8.05952,8.05952,0,0,1-1.66833-.17627v19.16846a.37125.37125,0,0,0,.42041.41992h2.1416a.37144.37144,0,0,0,.42041-.41992V95.89436A8.03739,8.03739,0,0,1,219.04159,96.01154Z"/>
  <path class="ed5a8919-b68a-46ea-95a9-e5f46e2b4fa4" d="M219.04159,79.95344a8.05023,8.05023,0,0,1,1.46948.14062l.0608-64.186a7.819,7.819,0,0,1-3,.00927l-.0608,64.186A8.06438,8.06438,0,0,1,219.04159,79.95344Z"/>
  <circle class="aaf99bbd-aa56-4da9-85ee-fc3120566688" cx="149.74075" cy="87.9824" r="3.19136"/>
  <path class="f4e70f62-e1da-42fb-bc2d-6488da96658d" d="M149.74075,96.01154a8.05234,8.05234,0,0,1-1.49786-.145v19.13721a.37125.37125,0,0,0,.42041.41992h2.1416a.37144.37144,0,0,0,.42041-.41992V95.86848A8.039,8.039,0,0,1,149.74075,96.01154Z"/>
  <path class="ed5a8919-b68a-46ea-95a9-e5f46e2b4fa4" d="M144.0552,82.31428,112.44827,60.8802a8.04139,8.04139,0,0,1-1.68329,2.48291L142.37191,84.7967A8.04493,8.04493,0,0,1,144.0552,82.31428Z"/>
  <circle class="aaf99bbd-aa56-4da9-85ee-fc3120566688" cx="166.09381" cy="51.75156" r="3.19136"/>
  <path class="ed5a8919-b68a-46ea-95a9-e5f46e2b4fa4" d="M173.13186,47.8885l40.81958-33.68311a8.05855,8.05855,0,0,1-1.91015-2.31348L171.22171,45.575A8.05953,8.05953,0,0,1,173.13186,47.8885Z"/>
  <path class="ed5a8919-b68a-46ea-95a9-e5f46e2b4fa4" d="M112.78286,55.44563a8.01711,8.01711,0,0,1,.32538,2.249c0,.249-.01507.49414-.03723.7373l45.335-4.37011a8.0212,8.0212,0,0,1-.34112-2.31006c0-.228.0155-.45166.03405-.67432Z"/>
</svg>
