<svg id="b9b4d1b6-64f8-4042-9081-d9fa1072fa41" data-name="Layer 1" xmlns="http://www.w3.org/2000/svg" viewBox="0 0 253.00293 91.70107">
  <defs>
    <style>
      .ad03fbaf-1a3e-441c-abbc-6415f8836571 {
        fill: #333;
      }

      .f34f86be-a0cc-496e-b2cb-e35bda456500 {
        fill: #0c2134;
      }

      .e0e03d58-00b3-429f-a73f-8297677b3ce5 {
        fill: #ef554e;
      }
    </style>
  </defs>
  <title>Features</title>
  <path class="ad03fbaf-1a3e-441c-abbc-6415f8836571" d="M2.751,81.537A6.87529,6.87529,0,0,1,0,75.82411V74.52138a.37129.37129,0,0,1,.41992-.41992H2.478a.37168.37168,0,0,1,.41992.41992v1.13477a4.6562,4.6562,0,0,0,2.01611,3.92773A9.22405,9.22405,0,0,0,10.5,81.07411a7.64257,7.64257,0,0,0,4.91406-1.36523,4.44574,4.44574,0,0,0,1.67969-3.63281,4.11673,4.11673,0,0,0-.77686-2.51953,7.67646,7.67646,0,0,0-2.394-1.97461,42.27113,42.27113,0,0,0-4.55713-2.14258,48.39619,48.39619,0,0,1-4.89258-2.20508,8.21207,8.21207,0,0,1-2.81445-2.43555,6.27518,6.27518,0,0,1-1.0708-3.75781,6.60478,6.60478,0,0,1,2.457-5.48242,10.56213,10.56213,0,0,1,6.74121-1.95313,11.32265,11.32265,0,0,1,7.34961,2.18555,7.09188,7.09188,0,0,1,2.688,5.79492v.92383a.37071.37071,0,0,1-.41992.41992h-2.1001a.37071.37071,0,0,1-.41992-.41992V61.7538a4.91751,4.91751,0,0,0-1.91065-3.99023,8.20624,8.20624,0,0,0-5.313-1.55274A7.43536,7.43536,0,0,0,5.082,57.42763a4.16926,4.16926,0,0,0-1.59619,3.5293,3.91412,3.91412,0,0,0,.77686,2.498,6.53868,6.53868,0,0,0,2.22607,1.72266q1.44947.73535,4.47314,1.91016A40.96591,40.96591,0,0,1,15.897,69.43935a9.84735,9.84735,0,0,1,3.02393,2.668,6.32026,6.32026,0,0,1,1.15478,3.84375,6.85773,6.85773,0,0,1-2.604,5.62695A11.2085,11.2085,0,0,1,10.248,83.67763,11.90206,11.90206,0,0,1,2.751,81.537Z"/>
  <path class="ad03fbaf-1a3e-441c-abbc-6415f8836571" d="M50.58838,63.76943a7.11545,7.11545,0,0,1,1.99463,5.293V82.92177a.37071.37071,0,0,1-.41992.41992H50.021a.37071.37071,0,0,1-.41993-.41992V69.65029a5.24472,5.24472,0,0,0-1.40673-3.7793,4.80522,4.80522,0,0,0-3.6333-1.4707,4.90126,4.90126,0,0,0-5.166,5.166V82.92177a.37071.37071,0,0,1-.41992.41992H36.833a.37071.37071,0,0,1-.41992-.41992V62.50966a.37148.37148,0,0,1,.41992-.41992H38.9751a.37148.37148,0,0,1,.41992.41992V64.3163a.13819.13819,0,0,0,.063.125c.042.0293.07715.01563.105-.041a6.48218,6.48218,0,0,1,5.67041-2.60352A7.28655,7.28655,0,0,1,50.58838,63.76943Z"/>
  <path class="ad03fbaf-1a3e-441c-abbc-6415f8836571" d="M72.57422,62.08974h2.14209a.37148.37148,0,0,1,.41992.41992V82.6288q0,4.70216-2.709,6.88672a11.55434,11.55434,0,0,1-7.45459,2.18555c-.64453,0-1.13428-.01563-1.47022-.043a.41519.41519,0,0,1-.41992-.46289l.084-1.93164a.38508.38508,0,0,1,.126-.31446.31068.31068,0,0,1,.294-.0625l1.13378.041q3.906,0,5.67042-1.5332,1.76367-1.53223,1.76367-4.84961V80.99013a.09836.09836,0,0,0-.063-.10547c-.042-.01367-.09131.00781-.147.06445a6.52445,6.52445,0,0,1-5.502,2.51954,8.30493,8.30493,0,0,1-4.85107-1.47071,7.077,7.077,0,0,1-2.835-4.1582,19.48391,19.48391,0,0,1-.50391-5.12305q0-1.84863.105-3.10937a9.6834,9.6834,0,0,1,.44092-2.26758,7.843,7.843,0,0,1,2.73-4.05274,7.50889,7.50889,0,0,1,4.74609-1.5332,6.75233,6.75233,0,0,1,5.66993,2.47852c.05566.05664.105.07031.147.041a.13819.13819,0,0,0,.063-.125V62.50966A.37148.37148,0,0,1,72.57422,62.08974ZM72.1123,75.36122q.04176-.92284.042-2.6875,0-2.14159-.042-2.877a6.85569,6.85569,0,0,0-.21-1.36523,5.00548,5.00548,0,0,0-1.65869-2.918,4.89736,4.89736,0,0,0-3.33935-1.15625,5.05123,5.05123,0,0,0-3.33887,1.13476,5.96811,5.96811,0,0,0-1.91113,2.93946,15.27842,15.27842,0,0,0-.41992,4.20117,14.42321,14.42321,0,0,0,.41992,4.24219,5.24811,5.24811,0,0,0,5.25,4.07421,5.015,5.015,0,0,0,3.38134-1.13476,4.91531,4.91531,0,0,0,1.6587-2.89844A10.57707,10.57707,0,0,0,72.1123,75.36122Z"/>
  <path class="ad03fbaf-1a3e-441c-abbc-6415f8836571" d="M81.52,82.92177V54.36122a.37149.37149,0,0,1,.41992-.41992H84.082a.37148.37148,0,0,1,.41992.41992V82.92177a.37071.37071,0,0,1-.41992.41992H81.93994A.37071.37071,0,0,1,81.52,82.92177Z"/>
  <path class="ad03fbaf-1a3e-441c-abbc-6415f8836571" d="M107.644,72.08583v1.34375a.37105.37105,0,0,1-.42041.41992H93.65771a.14859.14859,0,0,0-.168.168,18.65182,18.65182,0,0,0,.25195,2.98243,5.02747,5.02747,0,0,0,1.97412,2.98242,6.43174,6.43174,0,0,0,3.86377,1.09179,5.96251,5.96251,0,0,0,3.1084-.79882,5.48235,5.48235,0,0,0,2.09961-2.26758c.16845-.252.36377-.30664.58838-.168l1.63769.9668a.41862.41862,0,0,1,.168.58789,7.555,7.555,0,0,1-3.1499,3.16992,9.84464,9.84464,0,0,1-4.83008,1.15625,8.85508,8.85508,0,0,1-4.99805-1.42774,7.66259,7.66259,0,0,1-2.89795-3.86523,17.24582,17.24582,0,0,1-.75586-5.79492q0-1.76367.063-2.877a9.174,9.174,0,0,1,.31494-1.99609,7.78058,7.78058,0,0,1,2.877-4.36719,8.41192,8.41192,0,0,1,5.229-1.63867,8.27551,8.27551,0,0,1,5.88037,1.93164,8.96075,8.96075,0,0,1,2.56153,5.46094A21.36775,21.36775,0,0,1,107.644,72.08583Zm-12.0332-6.65625a4.95929,4.95929,0,0,0-1.78516,2.877,13.56988,13.56988,0,0,0-.33593,2.85546.14782.14782,0,0,0,.168.168h10.87793a.148.148,0,0,0,.168-.168,18.91477,18.91477,0,0,0-.25195-2.6875,5.31324,5.31324,0,0,0-1.86865-3.0039,5.55537,5.55537,0,0,0-3.54932-1.11328A5.37017,5.37017,0,0,0,95.61084,65.42958Z"/>
  <path class="ad03fbaf-1a3e-441c-abbc-6415f8836571" d="M123.54053,81.537a6.87529,6.87529,0,0,1-2.751-5.71289V74.52138a.37129.37129,0,0,1,.41992-.41992h2.05811a.37168.37168,0,0,1,.41992.41992v1.13477a4.65622,4.65622,0,0,0,2.01611,3.92773,9.22405,9.22405,0,0,0,5.58594,1.49023,7.64257,7.64257,0,0,0,4.91406-1.36523,4.44574,4.44574,0,0,0,1.67969-3.63281,4.11678,4.11678,0,0,0-.77685-2.51953,7.67662,7.67662,0,0,0-2.394-1.97461,42.27113,42.27113,0,0,0-4.55713-2.14258,48.39481,48.39481,0,0,1-4.89257-2.20508,8.212,8.212,0,0,1-2.81446-2.43555,6.27525,6.27525,0,0,1-1.0708-3.75781,6.60478,6.60478,0,0,1,2.457-5.48242,10.56213,10.56213,0,0,1,6.74121-1.95313,11.32265,11.32265,0,0,1,7.34961,2.18555,7.09188,7.09188,0,0,1,2.688,5.79492v.92383a.37071.37071,0,0,1-.41992.41992h-2.1001a.37071.37071,0,0,1-.41992-.41992V61.7538a4.91753,4.91753,0,0,0-1.91064-3.99023,8.20627,8.20627,0,0,0-5.313-1.55274,7.43536,7.43536,0,0,0-4.57813,1.2168,4.16926,4.16926,0,0,0-1.59619,3.5293,3.91412,3.91412,0,0,0,.77686,2.498,6.53868,6.53868,0,0,0,2.22607,1.72266q1.44947.73535,4.47314,1.91016a40.96591,40.96591,0,0,1,4.93506,2.35156,9.84735,9.84735,0,0,1,3.02393,2.668,6.32026,6.32026,0,0,1,1.15478,3.84375,6.85773,6.85773,0,0,1-2.604,5.62695,11.2085,11.2085,0,0,1-7.22363,2.09961A11.90206,11.90206,0,0,1,123.54053,81.537Z"/>
  <path class="ad03fbaf-1a3e-441c-abbc-6415f8836571" d="M170.72656,62.08974h2.14209a.37148.37148,0,0,1,.41992.41992V82.6288q0,4.70216-2.709,6.88672a11.55432,11.55432,0,0,1-7.45459,2.18555c-.64453,0-1.13428-.01563-1.47021-.043a.41519.41519,0,0,1-.41993-.46289l.084-1.93164a.38508.38508,0,0,1,.126-.31446.31069.31069,0,0,1,.29395-.0625l1.13379.041q3.906,0,5.67041-1.5332,1.76367-1.53223,1.76367-4.84961V80.99013a.09836.09836,0,0,0-.063-.10547c-.042-.01367-.09131.00781-.147.06445a6.52444,6.52444,0,0,1-5.50195,2.51954,8.305,8.305,0,0,1-4.85108-1.47071,7.07709,7.07709,0,0,1-2.835-4.1582,19.484,19.484,0,0,1-.5039-5.12305q0-1.84863.105-3.10937a9.6829,9.6829,0,0,1,.44091-2.26758,7.84306,7.84306,0,0,1,2.73-4.05274,7.5089,7.5089,0,0,1,4.7461-1.5332,6.75231,6.75231,0,0,1,5.66992,2.47852c.05566.05664.105.07031.147.041a.13819.13819,0,0,0,.063-.125V62.50966A.37148.37148,0,0,1,170.72656,62.08974Zm-.46191,13.27148q.04175-.92284.042-2.6875,0-2.14159-.042-2.877a6.85642,6.85642,0,0,0-.21-1.36523,5.00553,5.00553,0,0,0-1.65869-2.918,4.8974,4.8974,0,0,0-3.33936-1.15625,5.05123,5.05123,0,0,0-3.33887,1.13476,5.96818,5.96818,0,0,0-1.91113,2.93946,15.27882,15.27882,0,0,0-.41992,4.20117,14.42356,14.42356,0,0,0,.41992,4.24219,5.24811,5.24811,0,0,0,5.25,4.07421,5.015,5.015,0,0,0,3.38135-1.13476,4.91529,4.91529,0,0,0,1.65869-2.89844A10.57691,10.57691,0,0,0,170.26465,75.36122Z"/>
  <path class="ad03fbaf-1a3e-441c-abbc-6415f8836571" d="M193.84766,63.76943a7.11545,7.11545,0,0,1,1.99463,5.293V82.92177a.37071.37071,0,0,1-.41993.41992h-2.14209a.37071.37071,0,0,1-.41992-.41992V69.65029a5.24472,5.24472,0,0,0-1.40674-3.7793,4.80519,4.80519,0,0,0-3.6333-1.4707,4.90126,4.90126,0,0,0-5.166,5.166V82.92177a.37071.37071,0,0,1-.41992.41992h-2.14209a.37071.37071,0,0,1-.41993-.41992V62.50966a.37149.37149,0,0,1,.41993-.41992h2.14209a.37148.37148,0,0,1,.41992.41992V64.3163a.13817.13817,0,0,0,.063.125c.042.0293.07714.01563.105-.041a6.48218,6.48218,0,0,1,5.67041-2.60352A7.28655,7.28655,0,0,1,193.84766,63.76943Z"/>
  <path class="ad03fbaf-1a3e-441c-abbc-6415f8836571" d="M215.11963,82.46083a8.59837,8.59837,0,0,1-3.50684-3.42383,10.23835,10.23835,0,0,1-1.23925-5.10351V63.3495a10.23084,10.23084,0,0,1,1.23925-5.10156,8.59843,8.59843,0,0,1,3.50684-3.42383,10.92188,10.92188,0,0,1,5.25-1.21875,11.04752,11.04752,0,0,1,5.271,1.21875,8.57451,8.57451,0,0,1,3.52783,3.42383,10.236,10.236,0,0,1,1.23925,5.10156v10.584a10.24351,10.24351,0,0,1-1.23925,5.10351,8.57445,8.57445,0,0,1-3.52783,3.42383,11.04684,11.04684,0,0,1-5.271,1.2168A10.92125,10.92125,0,0,1,215.11963,82.46083Zm10.374-3.27734a6.92272,6.92272,0,0,0,1.93213-5.12305v-10.752a6.99812,6.99812,0,0,0-1.93213-5.14453,7.64293,7.64293,0,0,0-10.20605,0,6.99616,6.99616,0,0,0-1.93213,5.14453v10.752a7.21951,7.21951,0,0,0,12.13818,5.12305Z"/>
  <path class="ad03fbaf-1a3e-441c-abbc-6415f8836571" d="M251.0083,63.76943a7.11545,7.11545,0,0,1,1.99463,5.293V82.92177a.37071.37071,0,0,1-.41992.41992h-2.14209a.37071.37071,0,0,1-.41992-.41992V69.65029a5.24472,5.24472,0,0,0-1.40674-3.7793,4.80522,4.80522,0,0,0-3.6333-1.4707,4.90126,4.90126,0,0,0-5.166,5.166V82.92177a.37071.37071,0,0,1-.41992.41992h-2.14209a.37071.37071,0,0,1-.41992-.41992V62.50966a.37148.37148,0,0,1,.41992-.41992H239.395a.37148.37148,0,0,1,.41992.41992V64.3163a.13819.13819,0,0,0,.063.125c.042.0293.07715.01563.105-.041a6.48218,6.48218,0,0,1,5.67041-2.60352A7.28654,7.28654,0,0,1,251.0083,63.76943Z"/>
  <circle class="f34f86be-a0cc-496e-b2cb-e35bda456500" cx="52.17562" cy="33.10158" r="3.19136"/>
  <circle class="f34f86be-a0cc-496e-b2cb-e35bda456500" cx="27.8123" cy="55.68841" r="3.19136"/>
  <path class="ad03fbaf-1a3e-441c-abbc-6415f8836571" d="M27.81232,63.71718a8.05157,8.05157,0,0,1-1.68878-.18115V82.88075a.37164.37164,0,0,0,.42041.41993h2.1416a.37184.37184,0,0,0,.42041-.41993V63.6039A8.06735,8.06735,0,0,1,27.81232,63.71718Z"/>
  <path class="e0e03d58-00b3-429f-a73f-8297677b3ce5" d="M34.61072,51.43105,47.41754,39.558a8.05683,8.05683,0,0,1-2.04028-2.19873l-12.8067,11.873A8.04953,8.04953,0,0,1,34.61072,51.43105Z"/>
  <circle class="f34f86be-a0cc-496e-b2cb-e35bda456500" cx="110.13307" cy="16.05779" r="3.19136"/>
  <circle class="f34f86be-a0cc-496e-b2cb-e35bda456500" cx="148.61311" cy="55.90743" r="3.19136"/>
  <path class="ad03fbaf-1a3e-441c-abbc-6415f8836571" d="M148.6131,63.93642a8.026,8.026,0,0,1-1.7-.18457v19.1289a.37164.37164,0,0,0,.42041.41993h2.1416a.37184.37184,0,0,0,.42041-.41993V63.8246A8.04279,8.04279,0,0,1,148.6131,63.93642Z"/>
  <path class="e0e03d58-00b3-429f-a73f-8297677b3ce5" d="M144.21576,49.19423l-27.5285-28.50879a8.06392,8.06392,0,0,1-2.15656,2.08545l27.5285,28.50879A8.065,8.065,0,0,1,144.21576,49.19423Z"/>
  <circle class="f34f86be-a0cc-496e-b2cb-e35bda456500" cx="71.33138" cy="8.0289" r="3.19136"/>
  <path class="e0e03d58-00b3-429f-a73f-8297677b3ce5" d="M79.35028,8.227a7.9979,7.9979,0,0,1-.62451,2.93457l23.384,4.78515a8.00025,8.00025,0,0,1,.59821-2.93994Z"/>
  <path class="e0e03d58-00b3-429f-a73f-8297677b3ce5" d="M58.14655,27.74745l9.57531-12.5542a8.04592,8.04592,0,0,1-2.37872-1.8291L55.7619,25.92568A8.0409,8.0409,0,0,1,58.14655,27.74745Z"/>
</svg>
