<svg id="be4e4953-6540-41b9-9fa7-ccd9889cf9aa" data-name="Layer 1" xmlns="http://www.w3.org/2000/svg" viewBox="0 0 148.92415 116.9749">
  <defs>
    <style>
      .a7f2bf3b-343f-4981-b3af-c21ae140d731 {
        fill: none;
        stroke: #ef554e;
        stroke-miterlimit: 10;
        stroke-width: 3px;
      }

      .eb997436-656b-4406-a276-1be092c35dcf {
        fill: #fff;
      }

      .b134efe9-acdf-45d2-b88c-6e2ed781f0ee {
        fill: #0c2134;
      }
    </style>
  </defs>
  <title>features2</title>
  <g>
    <polyline class="a7f2bf3b-343f-4981-b3af-c21ae140d731" points="70.837 76.284 18.373 106.481 8.029 8.029 64.46 40.5"/>
    <polyline class="a7f2bf3b-343f-4981-b3af-c21ae140d731" points="118.271 68.255 64.46 108.946 70.837 76.284"/>
    <polyline class="a7f2bf3b-343f-4981-b3af-c21ae140d731" points="64.46 40.5 64.46 7.942 140.895 51.47"/>
    <g>
      <circle class="eb997436-656b-4406-a276-1be092c35dcf" cx="8.0289" cy="8.0289" r="8.0289"/>
      <circle class="b134efe9-acdf-45d2-b88c-6e2ed781f0ee" cx="8.0289" cy="8.0289" r="3.19136"/>
    </g>
    <g>
      <circle class="eb997436-656b-4406-a276-1be092c35dcf" cx="64.46045" cy="40.25003" r="8.0289"/>
      <circle class="b134efe9-acdf-45d2-b88c-6e2ed781f0ee" cx="64.46045" cy="40.25003" r="3.19136"/>
    </g>
    <g>
      <circle class="eb997436-656b-4406-a276-1be092c35dcf" cx="64.46045" cy="8.0289" r="8.0289"/>
      <circle class="b134efe9-acdf-45d2-b88c-6e2ed781f0ee" cx="64.46045" cy="8.0289" r="3.19136"/>
    </g>
    <g>
      <circle class="eb997436-656b-4406-a276-1be092c35dcf" cx="70.83741" cy="76.28422" r="8.0289"/>
      <circle class="b134efe9-acdf-45d2-b88c-6e2ed781f0ee" cx="70.83741" cy="76.28422" r="3.19136"/>
    </g>
    <g>
      <circle class="eb997436-656b-4406-a276-1be092c35dcf" cx="64.46045" cy="108.946" r="8.0289"/>
      <circle class="b134efe9-acdf-45d2-b88c-6e2ed781f0ee" cx="64.46045" cy="108.946" r="3.19136"/>
    </g>
    <g>
      <circle class="eb997436-656b-4406-a276-1be092c35dcf" cx="18.42717" cy="106.22272" r="8.0289"/>
      <circle class="b134efe9-acdf-45d2-b88c-6e2ed781f0ee" cx="18.42717" cy="106.22272" r="3.19136"/>
    </g>
    <g>
      <circle class="eb997436-656b-4406-a276-1be092c35dcf" cx="140.89526" cy="51.47029" r="8.0289"/>
      <circle class="b134efe9-acdf-45d2-b88c-6e2ed781f0ee" cx="140.89526" cy="51.47029" r="3.19136"/>
    </g>
    <g>
      <circle class="eb997436-656b-4406-a276-1be092c35dcf" cx="118.27094" cy="68.25532" r="8.0289"/>
      <circle class="b134efe9-acdf-45d2-b88c-6e2ed781f0ee" cx="118.27094" cy="68.25532" r="3.19136"/>
    </g>
  </g>
</svg>
